<svg width="10.000000" height="13.000000" viewBox="0 0 10 13" fill="none" xmlns="http://www.w3.org/2000/svg" xmlns:xlink="http://www.w3.org/1999/xlink">
	<desc>
			Created with Pixso.
	</desc>
	<defs/>
	<path id="icon__COLOR:stroke-2" d="M0 0.9C0 0.12 0.62 -0.5 1.39 -0.5L8.6 -0.5C9.37 -0.5 10 0.12 10 0.9L10 11.47C10 11.93 9.5 12.22 9.1 12L5.97 10.25C5.36 9.91 4.63 9.91 4.02 10.25L0.89 12C0.49 12.22 0 11.93 0 11.47L0 0.9ZM1.39 0.5L8.6 0.5Q8.68 0.5 8.75 0.52Q8.82 0.55 8.88 0.61Q8.94 0.67 8.97 0.74Q9 0.81 9 0.9L9 10.79L6.46 9.38Q6.11 9.19 5.75 9.09Q5.38 9 5 9Q4.61 9 4.24 9.09Q3.88 9.19 3.53 9.38L1 10.79L1 0.9Q1 0.81 1.02 0.74Q1.05 0.67 1.11 0.61Q1.17 0.55 1.24 0.52Q1.31 0.5 1.39 0.5Z" fill="#E8E8E8" fill-opacity="1.000000" fill-rule="evenodd"/>
</svg>
